<svg xmlns="http://www.w3.org/2000/svg" width="320" height="320" viewBox="0 0 320 320" fill="none">
  <rect width="320" height="320" rx="40" fill="#EAF5F0"/>
  <circle cx="160" cy="118" r="58" fill="#C6E4D6"/>
  <path d="M80 278C80 227.19 116.19 191 167 191H153C203.81 191 240 227.19 240 278V280H80V278Z" fill="#BCDCCF"/>
  <path d="M130 112C130 95.4315 143.431 82 160 82V82C176.569 82 190 95.4315 190 112V140C190 156.569 176.569 170 160 170V170C143.431 170 130 156.569 130 140V112Z" fill="#5D8B78"/>
  <path d="M114 270C114 232.997 143.997 203 181 203H139C176.003 203 206 232.997 206 270V280H114V270Z" fill="#5D8B78"/>
</svg>
